<svg width="1686" height="1653" xmlns="http://www.w3.org/2000/svg" xmlns:xlink="http://www.w3.org/1999/xlink" xml:space="preserve" overflow="hidden"><g transform="translate(-1120 -402)"><path d="M1143 570.518C1143 490.15 1208.15 425 1288.52 425L2637.48 425C2717.85 425 2783 490.15 2783 570.518L2783 1435.48C2783 1515.85 2717.85 1581 2637.48 1581L1288.52 1581C1208.15 1581 1143 1515.85 1143 1435.48Z" stroke="#404040" stroke-width="45.8333" stroke-miterlimit="8" fill="none" fill-rule="evenodd"/><path d="M1544.5 898.5 2381.5 898.5 2381.5 1488.52 1544.5 1488.52ZM1663.36 1017.36 1663.36 1369.65 2262.64 1369.65 2262.64 1017.36Z" stroke="#404040" stroke-width="41.25" stroke-miterlimit="8" fill="none" fill-rule="evenodd"/><rect x="1615" y="1453" width="696" height="121" fill="#404040"/><path d="M1660.51 1554.5 1660.86 1555.89 2266.14 1555.89 2266.49 1554.5 2282.5 1558.49 2159.9 2050.5 2143.89 2046.51 2150.45 2020.16 2087.61 2020.16 2087.61 2049.11 2066.76 2049.11 2066.76 2020.16 1976.82 2020.16 1976.82 2049.11 1955.97 2049.11 1955.97 2020.16 1866.03 2020.16 1866.03 2049.11 1845.18 2049.11 1845.18 2020.16 1776.55 2020.16 1783.11 2046.51 1767.1 2050.5 1644.5 1558.49 1660.51 1554.5ZM1734.39 1576.75 1666.06 1576.75 1688.48 1666.75 1734.39 1666.75 1734.39 1576.75ZM1845.18 1576.75 1755.24 1576.75 1755.24 1666.75 1845.18 1666.75 1845.18 1576.75ZM1976.82 1576.75 1976.82 1666.75 2066.76 1666.75 2066.76 1576.75 1976.82 1576.75ZM2087.61 1576.75 2087.61 1666.75 2177.55 1666.75 2177.55 1576.75 2087.61 1576.75ZM2198.4 1576.75 2198.4 1666.75 2238.52 1666.75 2260.94 1576.75 2198.4 1576.75ZM1866.03 1576.75 1866.03 1666.75 1955.97 1666.75 1955.97 1576.75 1866.03 1576.75ZM1866.03 1687.6 1866.03 1777.6 1955.97 1777.6 1955.97 1687.6 1866.03 1687.6ZM2066.76 1687.6 1976.82 1687.6 1976.82 1777.6 2066.76 1777.6 2066.76 1687.6ZM2198.4 1687.6 2198.4 1777.6 2210.89 1777.6 2233.32 1687.6 2198.4 1687.6ZM2087.61 1687.6 2087.61 1777.6 2177.55 1777.6 2177.55 1687.6 2087.61 1687.6ZM1693.68 1687.6 1716.11 1777.6 1734.39 1777.6 1734.39 1687.6 1693.68 1687.6ZM1755.24 1687.6 1755.24 1777.6 1845.18 1777.6 1845.18 1687.6 1755.24 1687.6ZM1721.3 1798.46 1734.39 1850.98 1734.39 1798.46 1721.3 1798.46ZM1755.24 1798.46 1755.24 1888.45 1845.18 1888.45 1845.18 1798.46 1755.24 1798.46ZM1866.03 1798.46 1866.03 1888.45 1955.97 1888.45 1955.97 1798.46 1866.03 1798.46ZM1976.82 1798.46 1976.82 1888.45 2066.76 1888.45 2066.76 1798.46 1976.82 1798.46ZM2087.61 1798.46 2087.61 1888.45 2177.55 1888.45 2177.55 1798.46 2087.61 1798.46ZM2198.4 1798.46 2198.4 1827.74 2205.7 1798.46 2198.4 1798.46ZM1845.18 1909.31 1755.24 1909.31 1755.24 1934.64 1771.35 1999.31 1845.18 1999.31 1845.18 1909.31ZM1976.82 1909.31 1976.82 1999.31 2066.76 1999.31 2066.76 1909.31 1976.82 1909.31ZM2087.61 1909.31 2087.61 1999.31 2155.65 1999.31 2177.55 1911.4 2177.55 1909.31 2087.61 1909.31ZM1866.03 1909.31 1866.03 1999.31 1955.97 1999.31 1955.97 1909.31 1866.03 1909.31Z" stroke="#404040" stroke-width="6.875" stroke-miterlimit="8" fill="#404040" fill-rule="evenodd"/></g></svg>