<svg width="706" height="137" xmlns="http://www.w3.org/2000/svg" xmlns:xlink="http://www.w3.org/1999/xlink" xml:space="preserve" overflow="hidden"><defs><clipPath id="clip0"><rect x="2326" y="1116" width="706" height="137"/></clipPath></defs><g clip-path="url(#clip0)" transform="translate(-2326 -1116)"><path d="M2826.68 1214.77 2864.71 1214.77 2864.71 1251.56 2843.97 1251.56C2834.42 1251.56 2826.68 1243.33 2826.68 1233.17ZM2491.63 1117.53 2503.68 1117.53 2526.93 1184.47 2550.18 1117.53 2562.43 1117.53 2562.43 1194.87 2540.39 1252.03 2540.39 1252.3 2540.28 1252.3 2540.08 1252.3 2539.98 1252.3 2513.88 1252.3 2513.77 1252.3 2513.57 1252.3 2513.47 1252.3 2513.47 1252.03 2491.63 1195.39ZM2662.6 1117.12 2680.79 1117.12C2690.83 1117.12 2698.97 1124.88 2698.97 1134.45L2698.97 1216.29 2705.84 1216.98C2712.37 1218.37 2716.95 1221.62 2716.95 1225.4L2716.95 1251.88 2698.97 1251.88 2680.79 1251.88 2680.58 1251.88 2680.58 1251.84 2673.71 1250.52C2667.18 1247.89 2662.6 1241.73 2662.6 1234.55ZM2615.89 1117.12 2634.08 1117.12C2644.12 1117.12 2652.26 1124.88 2652.26 1134.45L2652.26 1251.88 2634.08 1251.88C2624.03 1251.88 2615.89 1244.12 2615.89 1234.55ZM2871.47 1117.12 2892.21 1117.12C2901.76 1117.12 2909.5 1125.35 2909.5 1135.51L2909.5 1153.91 2871.47 1153.91ZM2827.69 1117.12 2864.71 1117.12C2864.7 1133.49 2864.69 1149.87 2864.68 1166.25L2864.71 1166.25 2894.76 1166.25 2894.76 1166.52 2895.7 1166.62C2901.6 1167.91 2906.42 1172.4 2908.45 1178.32L2909.4 1184.04 2909.4 1184.04 2909.4 1184.04 2909.5 1184.64C2909.47 1207.06 2909.43 1229.47 2909.4 1251.88L2871.47 1251.56 2871.47 1203.04 2842.13 1203.04 2842.13 1202.73 2841.49 1202.66C2835.59 1201.38 2830.78 1196.88 2828.74 1190.97L2827.8 1185.28 2827.69 1185.28 2827.69 1184.64C2827.69 1184.64 2827.69 1184.64 2827.69 1184.64 2827.69 1162.13 2827.69 1139.63 2827.69 1117.12ZM2798.16 1117.12 2816.34 1117.12 2816.34 1234.55C2816.34 1244.12 2808.2 1251.88 2798.16 1251.88L2779.97 1251.88 2779.97 1251.88 2769.93 1251.88 2769.93 1215.42 2779.97 1215.42 2779.97 1153.58 2779.92 1153.58 2779.92 1117.12 2798.16 1117.12C2798.16 1117.12 2798.16 1117.12 2798.16 1117.12ZM2745.47 1117.12 2763.66 1117.12 2763.66 1117.12 2773.57 1117.12 2773.57 1153.58 2763.66 1153.58 2763.66 1207.86 2763.58 1207.86 2763.58 1251.88 2745.47 1251.88C2745.47 1251.88 2745.47 1251.88 2745.47 1251.88L2727.29 1251.88 2727.29 1134.45C2727.29 1124.88 2735.43 1117.12 2745.47 1117.12ZM2569.19 1116.7 2587.37 1116.7C2597.41 1116.7 2605.55 1124.46 2605.55 1134.03L2605.55 1251.47 2587.37 1251.47C2577.33 1251.47 2569.19 1243.71 2569.19 1234.14ZM2466.68 1116.7 2484.87 1116.7 2484.87 1234.14C2484.87 1243.71 2476.73 1251.47 2466.68 1251.47L2448.5 1251.47 2448.5 1134.03C2448.5 1124.46 2456.64 1116.7 2466.68 1116.7ZM2933.69 1116 2960.75 1116 2960.75 1116 2962.37 1116 2971.36 1116 2971.36 1116 2977.08 1116C2977.08 1116.04 2977.08 1116.07 2977.08 1116.11L2982.31 1116.65C2984.77 1117.38 2990.43 1119.79 2991.85 1120.47L2992.22 1120.66C3001.24 1126.3 3007.27 1136.52 3007.27 1148.19 3007.27 1151.52 3006.78 1154.73 3005.87 1157.76L3005.23 1159.12 3005.23 1159.12 3001.93 1166.18 3001.11 1167.21 3004.38 1168C3021.07 1173.58 3032.23 1188.7 3032 1206.58 3031.75 1224.91 3019.54 1241.93 3001.49 1249.08 2998.41 1250.3 2995.27 1251.19 2992.14 1251.75L2986.49 1252.2C2986.49 1252.2 2986.49 1252.2 2986.49 1252.2L2982.78 1252.5C2976.6 1252.37 2970.61 1251.01 2965.19 1248.51L2961.45 1246.39C2961.45 1248.59 2961.45 1250.8 2961.45 1253L2954.13 1253 2954.13 1253 2934.24 1253 2933.69 1253 2923.4 1252.97C2923.4 1221.61 2923.4 1190.03 2923.4 1158.66L2923.47 1158.66 2923.41 1129.14 2923.3 1128.64 2922.81 1126.59C2921.64 1122.94 2919.68 1119.83 2917.21 1117.63L2914.63 1116 2917.97 1116 2933.69 1116ZM2397.25 1116 2424.31 1116 2424.31 1116 2440.03 1116 2443.37 1116 2440.79 1117.63C2438.32 1119.83 2436.36 1122.94 2435.19 1126.59L2434.7 1128.64 2434.59 1129.14 2434.53 1158.66 2434.6 1158.66C2434.6 1190.03 2434.6 1221.61 2434.6 1252.97L2424.31 1253 2423.76 1253 2403.87 1253 2403.87 1253 2396.55 1253C2396.55 1250.8 2396.55 1248.59 2396.55 1246.39L2392.81 1248.51C2387.39 1251.01 2381.4 1252.37 2375.22 1252.5L2371.51 1252.2C2371.51 1252.2 2371.51 1252.2 2371.51 1252.2L2365.86 1251.75C2362.73 1251.19 2359.59 1250.3 2356.51 1249.08 2338.46 1241.93 2326.25 1224.91 2326 1206.58 2325.77 1188.7 2336.93 1173.58 2353.62 1168L2356.89 1167.21 2356.07 1166.18 2352.77 1159.12 2352.77 1159.12 2352.13 1157.76C2351.22 1154.73 2350.73 1151.52 2350.73 1148.19 2350.73 1136.52 2356.76 1126.3 2365.78 1120.66L2366.16 1120.47C2367.57 1119.79 2373.23 1117.38 2375.69 1116.65L2380.92 1116.11C2380.92 1116.07 2380.92 1116.04 2380.92 1116L2386.64 1116 2386.64 1116 2395.63 1116 2397.25 1116Z" fill="#FFFFFF" fill-rule="evenodd"/></g></svg>