
<svg width="1058" height="1037"
     xmlns="http://www.w3.org/2000/svg"
     xmlns:xlink="http://www.w3.org/1999/xlink"
     xml:space="preserve"
     overflow="hidden">

  <style>
    /* Color Palette */
    :root {
      --color-mbg-white: #ffffff;
      --color-mbg-black: #000000;
      --color-mbg-darkgrey: #404040;
      --color-mbg-lightgrey: #bfbfbf;
      --color-mbg-green: #00821a;
    }

    /* Animation cycling through the five colors */
    @keyframes mbgColorCycle {
      0%   { fill: var(--color-mbg-white); }
      20%  { fill: var(--color-mbg-lightgrey); }
      40%  { fill: var(--color-mbg-darkgrey); }
      60%  { fill: var(--color-mbg-black); }
      80%  { fill: var(--color-mbg-green); }
      100% { fill: var(--color-mbg-white); }
    }

    /* Animate all paths that originally had a fill */
    path {
      animation: mbgColorCycle 5s infinite linear;
    }
  </style>

  <defs>
    <clipPath id="clip0">
      <rect x="1671" y="719" width="1058" height="1037"/>
    </clipPath>
  </defs>

  <g clip-path="url(#clip0)" transform="translate(-1671 -719)">
    <path d="M2209.57 1300.63C2286.9 1372.6 2285.1 1531.57 2224.31 1633.95L2220.31 1640.69C2216.71 1646.75 2212.59 1652.29 2208.04 1657.31L2205.74 1659.38 2187.22 1683.48C2159.79 1713.02 2123.25 1735.9 2080.39 1747.65 1966.09 1778.99 1850.16 1719.36 1821.44 1614.45 1810.68 1575.11 1813.7 1534.98 1827.72 1498.55L1842.7 1468.67 1845.29 1463.51 1864.2 1438.91 1864.4 1438.94C1918.45 1447.65 1973.74 1444.45 2026.43 1429.57 2047.46 1423.8 2067.35 1416.54 2085.86 1407.97L2132.61 1381.11 2137.08 1378.54C2168.19 1356.55 2192.94 1330.09 2209.57 1300.63ZM2313.48 1255.62C2399.6 1251.34 2501.34 1298.45 2560.59 1367.69L2565.69 1373.65C2570.27 1379 2574.2 1384.69 2577.48 1390.62L2578.71 1393.46 2595.58 1418.75C2614.74 1454.21 2624.68 1496.2 2622.06 1540.6 2619.45 1585.01 2604.65 1625.53 2581.45 1658.5 2542.79 1713.44 2480.8 1747.41 2413 1743.41 2372.32 1741.01 2335.32 1725.28 2305.33 1700.31L2281.86 1676.53 2277.8 1672.41 2260.58 1646.6 2260.68 1646.43C2286.24 1597.97 2300.94 1544.52 2303.75 1489.79 2305.03 1468 2304.54 1446.82 2302.36 1426.52L2291.92 1373.59 2290.93 1368.53C2280.09 1331.99 2262.98 1300.03 2240.44 1274.82 2252.05 1268.54 2264.55 1263.87 2277.69 1260.68 2289.19 1257.89 2301.17 1256.23 2313.48 1255.62ZM1870.5 978.122 1903.43 983.666 1909.13 984.625 1938.18 995.471 1938.21 995.67C1945.8 1049.94 1965.12 1101.89 1994.84 1147.92 2006.53 1166.34 2019.32 1183.23 2032.94 1198.42L2072.35 1235.23 2076.12 1238.75C2106.27 1262.04 2138.82 1277.93 2171.84 1285.18 2125.87 1380.32 1973.55 1425.38 1857.91 1397.35L1850.29 1395.51C1843.46 1393.85 1836.95 1391.54 1830.82 1388.66L1828.17 1387.07 1799.7 1376.44C1763.43 1358.9 1730.83 1330.67 1706.99 1293.13 1643.44 1193.01 1666.27 1064.56 1757.99 1006.22 1775.19 995.284 1793.59 987.588 1812.55 982.961 1831.51 978.335 1851.04 976.779 1870.5 978.122ZM2491.53 937.509C2522.25 935.728 2554.24 940.268 2585.46 951.964 2696.44 993.549 2755.53 1109.84 2717.43 1211.72 2703.15 1249.92 2677.22 1280.67 2644.54 1301.99L2614.92 1317.42 2609.79 1320.09 2580.08 1328.95 2579.94 1328.81C2541.22 1290.07 2494.52 1260.25 2443.11 1241.43 2422.68 1233.78 2402.32 1228.01 2382.3 1224.11L2328.68 1218.48 2323.56 1217.95C2285.48 1217.53 2249.93 1224.48 2219.22 1238.61 2198.64 1134.95 2293.1 1007.14 2402.27 959.778L2409.46 956.657C2415.91 953.856 2422.5 951.777 2429.13 950.383L2432.2 950.049 2461.32 941.367C2471.2 939.4 2481.29 938.103 2491.53 937.509ZM2193.97 719.003C2236.75 718.757 2278.82 732.243 2313.35 760.453 2344.93 786.244 2365.71 820.681 2375.42 858.497L2380.53 891.532 2381.41 897.246 2380.27 928.26 2380.09 928.348C2331.02 952.64 2287.83 987.354 2253.54 1030.07 2239.75 1046.98 2227.76 1064.44 2217.65 1082.17L2195.14 1131.2 2192.99 1135.88C2180.39 1171.86 2175.57 1207.79 2179.1 1241.44 2074.4 1227.72 1983.73 1097.19 1973.9 978.506L1973.26 970.685C1972.68 963.667 1972.82 956.756 1973.62 950.026L1974.29 947.005 1975.41 916.617C1980.63 876.633 1997.13 836.777 2025.23 802.315 2053.33 767.854 2089.03 743.68 2127.13 730.55 2135.06 727.815 2143.1 725.56 2151.2 723.79 2165.36 720.693 2179.71 719.085 2193.97 719.003Z"
          fill-rule="evenodd"/>
  </g>

</svg>
